<svg xmlns="http://www.w3.org/2000/svg" viewBox="0 0 512 512">
  <defs>
    <radialGradient id="core-mc" cx="50%" cy="50%" r="70%">
      <stop offset="0%" stop-color="#ffe6d2"/>
      <stop offset="45%" stop-color="#ff8c42"/>
      <stop offset="100%" stop-color="#e05c1a"/>
    </radialGradient>
    <radialGradient id="halo-mc" cx="50%" cy="50%" r="50%">
      <stop offset="0%" stop-color="#ff8c42" stop-opacity="0.22"/>
      <stop offset="100%" stop-color="#ff8c42" stop-opacity="0"/>
    </radialGradient>
    <style>
      .l{stroke:#e05c1a;stroke-width:4.6;stroke-linecap:round;}
      .s{stroke:#ff8c42;stroke-width:2.6;stroke-linecap:round;}
      .dl{fill:#ffc9a3;r:4.0;}
      .ds{fill:#ffc9a3;r:2.4;}
    </style>
  </defs>
  <rect width="512" height="512" rx="120" fill="#0a0a0c"/>
  <circle cx="256" cy="256" r="190" fill="url(#halo-mc)"/>
  <line x1="164" y1="249" x2="146" y2="248" class="s" opacity="0.63"/><circle cx="146" cy="248" class="ds" opacity="0.80"/><line x1="175" y1="236" x2="172" y2="236" class="s" opacity="0.33"/><circle cx="172" cy="236" class="ds" opacity="0.50"/><line x1="158" y1="268" x2="132" y2="272" class="s" opacity="0.74"/><circle cx="132" cy="272" class="ds" opacity="0.91"/><line x1="301" y1="328" x2="304" y2="332" class="s" opacity="0.38"/><circle cx="304" cy="332" class="ds" opacity="0.55"/><line x1="183" y1="214" x2="180" y2="213" class="s" opacity="0.34"/><circle cx="180" cy="213" class="ds" opacity="0.51"/><line x1="311" y1="175" x2="318" y2="164" class="s" opacity="0.64"/><circle cx="318" cy="164" class="ds" opacity="0.81"/><line x1="255" y1="339" x2="255" y2="358" class="s" opacity="0.55"/><circle cx="255" cy="358" class="ds" opacity="0.72"/><line x1="315" y1="333" x2="322" y2="343" class="s" opacity="0.53"/><circle cx="322" cy="343" class="ds" opacity="0.70"/><line x1="304" y1="186" x2="307" y2="181" class="s" opacity="0.37"/><circle cx="307" cy="181" class="ds" opacity="0.54"/><line x1="338" y1="269" x2="345" y2="270" class="s" opacity="0.42"/><circle cx="345" cy="270" class="ds" opacity="0.59"/><line x1="244" y1="347" x2="243" y2="357" class="s" opacity="0.68"/><circle cx="243" cy="357" class="ds" opacity="0.85"/><line x1="343" y1="281" x2="347" y2="282" class="s" opacity="0.33"/><circle cx="347" cy="282" class="ds" opacity="0.50"/><line x1="169" y1="275" x2="155" y2="278" class="l" opacity="0.34"/><circle cx="155" cy="278" class="dl" opacity="0.51"/><line x1="261" y1="168" x2="262" y2="154" class="s" opacity="0.65"/><circle cx="262" cy="154" class="ds" opacity="0.82"/><line x1="301" y1="327" x2="315" y2="349" class="s" opacity="0.77"/><circle cx="315" cy="349" class="ds" opacity="0.94"/><line x1="195" y1="322" x2="178" y2="339" class="s" opacity="0.65"/><circle cx="178" cy="339" class="ds" opacity="0.82"/><line x1="171" y1="309" x2="162" y2="315" class="s" opacity="0.52"/><circle cx="162" cy="315" class="ds" opacity="0.69"/><line x1="174" y1="249" x2="172" y2="248" class="s" opacity="0.34"/><circle cx="172" cy="248" class="ds" opacity="0.51"/><line x1="316" y1="314" x2="320" y2="318" class="s" opacity="0.39"/><circle cx="320" cy="318" class="ds" opacity="0.56"/><line x1="330" y1="312" x2="336" y2="317" class="s" opacity="0.39"/><circle cx="336" cy="317" class="ds" opacity="0.56"/><line x1="179" y1="202" x2="162" y2="189" class="s" opacity="0.75"/><circle cx="162" cy="189" class="ds" opacity="0.92"/><line x1="201" y1="178" x2="184" y2="155" class="s" opacity="0.78"/><circle cx="184" cy="155" class="ds" opacity="0.95"/><line x1="318" y1="328" x2="322" y2="333" class="s" opacity="0.45"/><circle cx="322" cy="333" class="ds" opacity="0.62"/><line x1="187" y1="324" x2="182" y2="329" class="s" opacity="0.57"/><circle cx="182" cy="329" class="ds" opacity="0.74"/><line x1="209" y1="177" x2="201" y2="164" class="s" opacity="0.78"/><circle cx="201" cy="164" class="ds" opacity="0.95"/><line x1="223" y1="333" x2="215" y2="350" class="s" opacity="0.77"/><circle cx="215" cy="350" class="ds" opacity="0.94"/><line x1="297" y1="164" x2="297" y2="163" class="s" opacity="0.33"/><circle cx="297" cy="163" class="ds" opacity="0.50"/><line x1="311" y1="181" x2="320" y2="169" class="s" opacity="0.56"/><circle cx="320" cy="169" class="ds" opacity="0.73"/><line x1="164" y1="258" x2="53" y2="261" class="l" opacity="0.70"/><circle cx="53" cy="261" class="dl" opacity="0.87"/><line x1="344" y1="308" x2="363" y2="319" class="s" opacity="0.66"/><circle cx="363" cy="319" class="ds" opacity="0.83"/><line x1="345" y1="206" x2="381" y2="186" class="l" opacity="0.57"/><circle cx="381" cy="186" class="dl" opacity="0.74"/><line x1="185" y1="311" x2="178" y2="317" class="s" opacity="0.69"/><circle cx="178" cy="317" class="ds" opacity="0.86"/><line x1="171" y1="276" x2="168" y2="277" class="s" opacity="0.34"/><circle cx="168" cy="277" class="ds" opacity="0.51"/><line x1="207" y1="336" x2="196" y2="352" class="s" opacity="0.55"/><circle cx="196" cy="352" class="ds" opacity="0.72"/><line x1="174" y1="285" x2="167" y2="288" class="s" opacity="0.49"/><circle cx="167" cy="288" class="ds" opacity="0.66"/><line x1="205" y1="192" x2="169" y2="146" class="l" opacity="0.69"/><circle cx="169" cy="146" class="dl" opacity="0.86"/><line x1="321" y1="330" x2="382" y2="401" class="l" opacity="0.68"/><circle cx="382" cy="401" class="dl" opacity="0.85"/><line x1="249" y1="158" x2="245" y2="94" class="l" opacity="0.78"/><circle cx="245" cy="94" class="dl" opacity="0.95"/><line x1="274" y1="338" x2="275" y2="345" class="s" opacity="0.55"/><circle cx="275" cy="345" class="ds" opacity="0.72"/><line x1="194" y1="182" x2="175" y2="159" class="s" opacity="0.77"/><circle cx="175" cy="159" class="ds" opacity="0.94"/><line x1="183" y1="321" x2="128" y2="371" class="l" opacity="0.78"/><circle cx="128" cy="371" class="dl" opacity="0.95"/><line x1="198" y1="198" x2="182" y2="182" class="s" opacity="0.59"/><circle cx="182" cy="182" class="ds" opacity="0.76"/><line x1="157" y1="244" x2="55" y2="231" class="l" opacity="0.77"/><circle cx="55" cy="231" class="dl" opacity="0.94"/><line x1="254" y1="358" x2="254" y2="375" class="l" opacity="0.34"/><circle cx="254" cy="375" class="dl" opacity="0.51"/><line x1="347" y1="211" x2="349" y2="210" class="s" opacity="0.33"/><circle cx="349" cy="210" class="ds" opacity="0.50"/><line x1="326" y1="306" x2="341" y2="317" class="l" opacity="0.43"/><circle cx="341" cy="317" class="dl" opacity="0.60"/><line x1="167" y1="227" x2="45" y2="187" class="l" opacity="0.72"/><circle cx="45" cy="187" class="dl" opacity="0.89"/><line x1="301" y1="181" x2="310" y2="165" class="l" opacity="0.37"/><circle cx="310" cy="165" class="dl" opacity="0.54"/><line x1="313" y1="325" x2="359" y2="380" class="l" opacity="0.53"/><circle cx="359" cy="380" class="dl" opacity="0.70"/><line x1="157" y1="281" x2="149" y2="283" class="s" opacity="0.45"/><circle cx="149" cy="283" class="ds" opacity="0.62"/><line x1="251" y1="348" x2="251" y2="350" class="s" opacity="0.34"/><circle cx="251" cy="350" class="ds" opacity="0.51"/><line x1="186" y1="303" x2="123" y2="344" class="l" opacity="0.60"/><circle cx="123" cy="344" class="dl" opacity="0.77"/><line x1="337" y1="309" x2="344" y2="313" class="l" opacity="0.33"/><circle cx="344" cy="313" class="dl" opacity="0.50"/><line x1="275" y1="164" x2="276" y2="159" class="s" opacity="0.38"/><circle cx="276" cy="159" class="ds" opacity="0.55"/><line x1="261" y1="156" x2="262" y2="130" class="s" opacity="0.73"/><circle cx="262" cy="130" class="ds" opacity="0.90"/><line x1="319" y1="324" x2="322" y2="327" class="s" opacity="0.47"/><circle cx="322" cy="327" class="ds" opacity="0.64"/><line x1="328" y1="212" x2="345" y2="201" class="s" opacity="0.77"/><circle cx="345" cy="201" class="ds" opacity="0.94"/><line x1="168" y1="214" x2="151" y2="206" class="s" opacity="0.71"/><circle cx="151" cy="206" class="ds" opacity="0.88"/><line x1="215" y1="343" x2="210" y2="353" class="s" opacity="0.78"/><circle cx="210" cy="353" class="ds" opacity="0.95"/><line x1="321" y1="319" x2="325" y2="323" class="s" opacity="0.41"/><circle cx="325" cy="323" class="ds" opacity="0.58"/><line x1="251" y1="172" x2="249" y2="127" class="l" opacity="0.59"/><circle cx="249" cy="127" class="dl" opacity="0.76"/><line x1="338" y1="226" x2="344" y2="223" class="s" opacity="0.49"/><circle cx="344" cy="223" class="ds" opacity="0.66"/><line x1="235" y1="161" x2="232" y2="148" class="s" opacity="0.47"/><circle cx="232" cy="148" class="ds" opacity="0.64"/><line x1="289" y1="169" x2="292" y2="162" class="s" opacity="0.51"/><circle cx="292" cy="162" class="ds" opacity="0.68"/><line x1="331" y1="310" x2="338" y2="315" class="s" opacity="0.42"/><circle cx="338" cy="315" class="ds" opacity="0.59"/><line x1="291" y1="345" x2="297" y2="360" class="s" opacity="0.75"/><circle cx="297" cy="360" class="ds" opacity="0.92"/><line x1="324" y1="197" x2="333" y2="190" class="l" opacity="0.33"/><circle cx="333" cy="190" class="dl" opacity="0.50"/><line x1="282" y1="335" x2="293" y2="371" class="l" opacity="0.48"/><circle cx="293" cy="371" class="dl" opacity="0.65"/><line x1="169" y1="305" x2="158" y2="311" class="s" opacity="0.60"/><circle cx="158" cy="311" class="ds" opacity="0.77"/><line x1="345" y1="260" x2="376" y2="261" class="s" opacity="0.77"/><circle cx="376" cy="261" class="ds" opacity="0.94"/>
  <circle cx="256" cy="256" r="58" fill="url(#core-mc)"/>
  <circle cx="256" cy="256" r="58" fill="none" stroke="#fff5ec" stroke-width="2" opacity="0.55"/>
</svg>
